mtllib box.mtl
o Default
v 0 0 0
v 0 0 1
v 1 0 1
v 1 0 0
v 0 1 1
v 1 1 0
v 0 1 0
v 1 1 1
v 1 0 0
v 0 1 0
v 1 1 0
v 0 0 0
v 0 0 0
v 0 1 1
v 0 1 0
v 0 0 1
v 0 0 1
v 1 1 1
v 0 1 1
v 1 0 1
v 1 0 1
v 1 1 0
v 1 1 1
v 1 0 0
vt 1 1
vt 0.5 5.960464477539063e-8
vt 1 5.960464477539063e-8
vt 0.5 1
vt 0 5.960464477539063e-8
vt 0 1
vn 0 -1 0
vn 0 1 0
vn 0 0 -1
vn -1 0 0
vn 0 0 1
vn 1 0 0
g box
usemtl 0
f 1/1/1 3/2/1 2/3/1
f 1/1/1 4/4/1 3/2/1
f 5/1/2 6/2/2 7/3/2
f 5/1/2 8/4/2 6/2/2
f 9/4/3 10/5/3 11/2/3
f 9/4/3 12/6/3 10/5/3
f 13/4/4 14/5/4 15/2/4
f 13/4/4 16/6/4 14/5/4
f 17/4/5 18/5/5 19/2/5
f 17/4/5 20/6/5 18/5/5
f 21/4/6 22/5/6 23/2/6
f 21/4/6 24/6/6 22/5/6
